<svg width="44" height="44" xmlns="http://www.w3.org/2000/svg" xmlns:xlink="http://www.w3.org/1999/xlink" xml:space="preserve" overflow="hidden"><g transform="translate(-216 -359)"><path d="M228.628 388.2 228.979 387.353 236.602 390.511 236.252 391.358Z"/><path d="M243.397 396.125C249.211 390.893 249.683 381.938 244.452 376.124 243.81 375.411 243.097 374.764 242.324 374.195L246.077 365.161 244.791 364.657 245.795 362.191 242.429 360.782 241.416 363.267 240.136 362.762 232.214 381.839C231.826 382.802 231.925 383.892 232.48 384.768L231.661 386.602 235.028 388.013 235.846 386.175C236.872 385.948 237.728 385.246 238.153 384.285L238.544 383.292 244.153 383.292C244.328 384.043 244.418 384.812 244.421 385.583 244.414 391.383 239.729 396.09 233.93 396.125L225.167 396.125 225.167 399.333 250.833 399.333 250.833 396.125ZM242.928 361.985 244.604 362.685 243.941 364.312 242.266 363.611ZM232.88 386.121 233.242 385.309 234.918 386.01 234.555 386.821ZM237.31 383.929C236.994 384.644 236.344 385.154 235.575 385.291L233.304 384.341C232.864 383.71 232.774 382.899 233.063 382.187L240.637 363.945 244.872 365.673 240.576 376.012C239.212 375.731 237.879 376.608 237.598 377.972 237.391 378.98 237.816 380.012 238.674 380.581ZM238.458 378.479C238.458 377.593 239.177 376.875 240.063 376.875 240.948 376.875 241.667 377.593 241.667 378.479 241.667 379.365 240.948 380.083 240.063 380.083 239.177 380.083 238.458 379.365 238.458 378.479ZM245.337 385.583C245.334 384.615 245.205 383.652 244.955 382.717L244.864 382.375 238.919 382.375 239.515 380.938C240.873 381.24 242.218 380.385 242.52 379.027 242.75 377.995 242.311 376.93 241.421 376.36L241.956 375.073C247.773 379.507 248.893 387.816 244.459 393.633 243.744 394.571 242.907 395.409 241.97 396.125L238.369 396.125C242.592 394.321 245.333 390.175 245.337 385.583ZM249.917 398.417 226.083 398.417 226.083 397.042 233.877 397.042 233.877 397.042C233.895 397.042 233.913 397.042 233.93 397.042L249.917 397.042Z"/></g></svg>