<svg width="43" height="42" xmlns="http://www.w3.org/2000/svg" xmlns:xlink="http://www.w3.org/1999/xlink" xml:space="preserve" overflow="hidden"><g transform="translate(-888 -361)"><path d="M12.9063 16.0611C12.3526 16.3027 12.0997 16.9473 12.3413 17.501 12.5829 18.0546 13.2276 18.3076 13.7813 18.0659 14.3349 17.8243 14.5878 17.1796 14.3462 16.626 14.2359 16.3732 14.0341 16.1714 13.7813 16.0611L13.7813 13.1285 12.0313 13.1285 12.0313 11.501C12.5849 11.2594 12.8378 10.6147 12.5962 10.0611 12.3546 9.50744 11.7099 9.25448 11.1563 9.49611 10.6026 9.73774 10.3497 10.3824 10.5913 10.9361 10.7016 11.1889 10.9034 11.3907 11.1563 11.501L11.1563 13.1281 8.88913 13.125C8.80512 13.3591 8.74256 13.5931 8.67694 13.8394 8.66294 13.8928 8.64806 13.9466 8.63319 14L12.9063 14.0039Z" transform="matrix(1.02381 0 0 1 888 361)"/><path d="M35.4375 22.3186 32.4188 17.0686 32.4188 16.8499C32.6759 9.58926 26.9985 3.49489 19.7379 3.23773 19.7357 3.23765 19.7334 3.23758 19.7312 3.2375 19.5685 3.23196 19.4065 3.22904 19.2452 3.22875 12.1755 3.22252 6.37284 8.82031 6.125 15.8856L6.125 16.8481C6.10794 20.9886 8.01548 24.9019 11.2875 27.4391L11.2875 38.5109 25.1125 38.5109 25.1125 33.2609 27.2563 33.2609C30.105 33.2552 32.413 30.9472 32.4188 28.0984L32.4188 25.3859 34.3438 25.3859C35.4813 25.2507 36.4875 23.9378 35.4375 22.3186ZM34.9248 24.0249C34.8008 24.2788 34.5626 24.4577 34.2842 24.5061L31.5437 24.5061 31.5437 28.0936C31.5404 30.4601 29.6228 32.3778 27.2563 32.3811L24.2375 32.3811 24.2375 37.6311 12.1625 37.6311 12.1625 27.0095 11.823 26.747C8.75989 24.38 6.97638 20.7196 7 16.8486L7 15.9018C7.22409 9.30659 12.6471 4.08238 19.2461 4.10462 19.3969 4.10462 19.5484 4.10739 19.7006 4.11294 26.4763 4.35777 31.7752 10.0409 31.5459 16.8171L31.5459 17.3009 31.6623 17.5035 34.6811 22.7535 34.6929 22.7736 34.7056 22.7933C34.9898 23.1366 35.0737 23.6037 34.9265 24.0244Z" transform="matrix(1.02381 0 0 1 888 361)"/><path d="M25.5938 9.40625C25.4662 9.40734 25.3398 9.43106 25.2206 9.47625L23.8438 8.23725 23.8438 6.3C23.555 6.18494 23.261 6.06944 22.9688 5.97056L22.9688 8.60956 24.5875 10.0677C24.3488 10.6226 24.6051 11.266 25.16 11.5047 25.7148 11.7434 26.3582 11.4871 26.5969 10.9323 26.8356 10.3774 26.5793 9.73403 26.0245 9.49528 25.8884 9.43674 25.7419 9.40647 25.5938 9.40625Z" transform="matrix(1.02381 0 0 1 888 361)"/><path d="M20.7813 18.1563C20.6386 18.1564 20.4974 18.1846 20.3656 18.2394L17.2813 15.1445 17.2813 10.0651 19.9063 10.0651 19.9063 12.1214C19.3526 12.363 19.0997 13.0077 19.3413 13.5613 19.5829 14.1149 20.2276 14.3679 20.7813 14.1263 21.3349 13.8846 21.5878 13.2399 21.3462 12.6863 21.2359 12.4335 21.0341 12.2317 20.7813 12.1214L20.7813 9.18969 17.2813 9.18969 17.2813 8.00056C17.8349 7.75893 18.0878 7.11427 17.8462 6.56062 17.6046 6.00701 16.9599 5.75404 16.4063 5.99568 15.8526 6.23731 15.5997 6.88201 15.8413 7.43562 15.9516 7.68845 16.1534 7.89022 16.4063 8.00056L16.4063 15.4906 17.85 16.982 15.5313 19.3008 15.5313 21.4419 12.8927 21.4419 11.2057 19.4604C11.4692 18.8982 11.227 18.2287 10.6647 17.9652 10.1024 17.7017 9.43294 17.9439 9.16943 18.5062 8.90592 19.0685 9.14817 19.7379 9.71044 20.0015 9.96914 20.1226 10.2642 20.1409 10.5359 20.0524L12.4827 22.3173 15.5313 22.3173 15.5313 23.0611C14.9776 23.3027 14.7247 23.9473 14.9663 24.501 15.2079 25.0546 15.8526 25.3076 16.4063 25.0659 16.9599 24.8243 17.2128 24.1796 16.9712 23.626 16.8609 23.3732 16.6591 23.1714 16.4063 23.0611L16.4063 19.6459 18.4625 17.5897 19.7527 18.8891C19.5548 19.4583 19.8558 20.0801 20.425 20.278 20.9942 20.4759 21.616 20.1749 21.8139 19.6057 22.0118 19.0365 21.7108 18.4146 21.1416 18.2168 21.0257 18.1765 20.9039 18.156 20.7813 18.1563Z" transform="matrix(1.02381 0 0 1 888 361)"/></g></svg>